<svg width="484" height="414" viewBox="0 0 484 414" fill="none" xmlns="http://www.w3.org/2000/svg">
<path d="M244.043 207.125L244.062 207.092L244.046 207.083L244.017 207.134L244.033 207.143L244.043 207.125Z" fill="black"/>
<path d="M244.118 207.124L244.099 207.157L244.088 207.175L244.104 207.185L244.134 207.134L244.118 207.124Z" fill="black"/>
<path d="M244.063 207.136L244.082 207.104L244.098 207.113L244.079 207.146L244.068 207.164L244.053 207.155L244.063 207.136Z" fill="white"/>
<path fill-rule="evenodd" clip-rule="evenodd" d="M244.079 207.191L244.095 207.201L244.077 207.232C244.061 207.26 244.035 207.264 244.009 207.249C243.982 207.234 243.973 207.21 243.989 207.182L244.007 207.15L244.023 207.159L244.013 207.177L244.006 207.19C243.996 207.206 244.002 207.219 244.02 207.23C244.038 207.24 244.052 207.238 244.061 207.222L244.069 207.21L244.079 207.191Z" fill="black"/>
<path d="M244.081 207.06L244.1 207.027L244.084 207.018L244.054 207.069L244.07 207.078L244.081 207.06Z" fill="black"/>
<path d="M244.155 207.06L244.137 207.092L244.126 207.11L244.142 207.12L244.171 207.069L244.155 207.06Z" fill="black"/>
<path d="M244.101 207.072L244.12 207.039L244.135 207.048L244.117 207.081L244.106 207.099L244.09 207.09L244.101 207.072Z" fill="white"/>
<path fill-rule="evenodd" clip-rule="evenodd" d="M244.165 207.043L244.181 207.053L244.199 207.021C244.215 206.993 244.206 206.969 244.179 206.954C244.153 206.938 244.127 206.942 244.111 206.97L244.093 207.002L244.109 207.011L244.119 206.993L244.127 206.98C244.136 206.964 244.15 206.963 244.168 206.973C244.186 206.983 244.192 206.996 244.182 207.012L244.175 207.025L244.165 207.043Z" fill="black"/>
<path d="M342.593 360.225C343.1 360.835 343.851 361.187 344.644 361.187H444.246C446.51 361.187 447.745 358.545 446.292 356.809L322.342 208.696C321.513 207.705 321.513 206.263 322.342 205.272L446.292 57.1595C447.745 55.4234 446.51 52.7808 444.246 52.7808H344.644C343.851 52.7808 343.1 53.1335 342.593 53.7434L267.9 143.641L210.038 205.157C209.073 206.184 209.073 207.785 210.038 208.811L267.9 270.328L342.593 360.225Z" fill="black"/>
<mask id="path-6-outside-1_239_27" maskUnits="userSpaceOnUse" x="18" y="12" width="305" height="390" fill="black">
<rect fill="white" x="18" y="12" width="305" height="390"/>
<path d="M156.827 32H38L183.388 206.984L38 381.968H156.827L243.111 278.863L303.264 206.984L243.111 135.104L156.827 32Z"/>
</mask>
<path d="M156.827 32H38L183.388 206.984L38 381.968H156.827L243.111 278.863L303.264 206.984L243.111 135.104L156.827 32Z" fill="white"/>
<path d="M38 32V12.8783C30.5855 12.8783 23.8393 17.1646 20.6895 23.8768C17.5397 30.589 18.5541 38.5171 23.2925 44.22L38 32ZM156.827 32L171.491 19.7281C167.858 15.3867 162.488 12.8783 156.827 12.8783V32ZM156.827 381.968V401.089C162.488 401.089 167.858 398.581 171.491 394.239L156.827 381.968ZM38 381.968L23.2925 369.748C18.5541 375.45 17.5397 383.379 20.6895 390.091C23.8393 396.803 30.5855 401.089 38 401.089V381.968ZM243.111 135.104L228.446 147.376L228.446 147.376L243.111 135.104ZM303.264 206.984L317.928 219.256C323.871 212.154 323.871 201.814 317.928 194.712L303.264 206.984ZM243.111 278.863L228.446 266.592L228.446 266.592L243.111 278.863ZM183.388 206.984L198.096 219.204C203.981 212.12 203.981 201.847 198.096 194.764L183.388 206.984ZM38 51.1217H156.827V12.8783H38V51.1217ZM156.827 362.846H38V401.089H156.827V362.846ZM228.446 147.376L288.6 219.256L317.928 194.712L257.775 122.832L228.446 147.376ZM142.163 44.2719L228.446 147.376L257.775 122.832L171.491 19.7281L142.163 44.2719ZM257.775 291.135L317.928 219.256L288.6 194.712L228.446 266.592L257.775 291.135ZM228.446 266.592L142.163 369.696L171.491 394.239L257.775 291.135L228.446 266.592ZM52.7075 394.188L198.096 219.204L168.681 194.764L23.2925 369.748L52.7075 394.188ZM198.096 194.764L52.7075 19.78L23.2925 44.22L168.681 219.204L198.096 194.764Z" fill="black" mask="url(#path-6-outside-1_239_27)"/>
</svg>
